<?xml version="1.0" encoding="utf-8"?>
<!-- Generator: Adobe Illustrator 19.2.0, SVG Export Plug-In . SVG Version: 6.00 Build 0)  -->
<svg version="1.1" xmlns="http://www.w3.org/2000/svg" xmlns:xlink="http://www.w3.org/1999/xlink" x="0px" y="0px"
	 viewBox="0 0 2000 2000" style="enable-background:new 0 0 2000 2000;" xml:space="preserve">
<style type="text/css">
	.st0{fill:#0D1832;}
	.st1{fill:none;stroke:#000000;stroke-width:6;stroke-linejoin:bevel;stroke-miterlimit:10;}
	.st2{fill:#00849F;}
	.st3{fill:none;}
	.st4{font-family:'LucidaConsole';}
	.st5{font-size:382px;}
	.st6{fill:#E6E7E8;}
</style>
<g id="Layer_1">
	<g id="XMLID_1_">
		<g>
			<circle class="st0" cx="1000" cy="1000" r="1000"/>
		</g>
		<g>
			<circle class="st1" cx="1000" cy="1000" r="1000"/>
		</g>
	</g>
</g>
<g id="Layer_3">
	<path class="st2" d="M676.4,1169.7c0,36.1-29.3,65.4-65.4,65.4s-65.4-29.3-65.4-65.4c0-36.1,44.3-132.7,65.4-186
		C635.1,1037.8,676.4,1133.6,676.4,1169.7z"/>
	<path class="st2" d="M720.8,1625c0,36.1-29.3,65.4-65.4,65.4c-36.1,0-65.4-29.3-65.4-65.4s44.3-132.7,65.4-186
		C679.5,1493,720.8,1588.9,720.8,1625z"/>
	<path class="st2" d="M1379.4,1287.5c0,36.1-29.3,65.4-65.4,65.4s-65.4-29.3-65.4-65.4s44.3-132.7,65.4-186
		C1338,1155.5,1379.4,1251.3,1379.4,1287.5z"/>
	<path class="st2" d="M1571.3,1605.5c0,36.1-29.3,65.4-65.4,65.4c-36.1,0-65.4-29.3-65.4-65.4s44.3-132.7,65.4-186
		C1530,1473.5,1571.3,1569.4,1571.3,1605.5z"/>
	<rect x="564.8" y="445.7" class="st3" width="810.1" height="931.8"/>
</g>
<g id="Layer_4">
	<rect x="846.4" y="1073.5" class="st3" width="381" height="501.9"/>
	<text transform="matrix(1 0 0 1 846.4474 1368.006)" class="st2 st4 st5">A</text>
	<rect x="1000" y="1486.1" class="st3" width="381" height="501.9"/>
	<text transform="matrix(1 0 0 1 1000.0002 1780.6399)" class="st2 st4 st5">$</text>
	<rect x="1481.6" y="984.2" class="st3" width="381" height="501.9"/>
	<text transform="matrix(1 0 0 1 1481.6389 1278.7601)" class="st2 st4 st5">m</text>
	<rect x="274.3" y="1110" class="st3" width="381" height="501.9"/>
	<text transform="matrix(1 0 0 1 274.3185 1404.4905)" class="st2 st4 st5">1</text>
</g>
<g id="Layer_2">
	<path class="st6" d="M1653.4,566.3c-9.8,0-19.4,0.6-28.8,1.7c37.6-32.3,60.9-77,60.9-126.4c0-98.7-93-178.7-207.6-178.7
		c-31.9,0-62.1,6.2-89.1,17.3c-25.4-120.4-174-212.8-353.5-212.8c-161.2,0-297.5,74.6-342,177c-16.2-4.2-33.2-6.4-50.7-6.4
		c-112.4,0-203.6,91.2-203.6,203.6c0,17.6,2.2,34.7,6.4,51c-2.1,0-4.3-0.1-6.4-0.1c-166.7,0-301.8,102.3-301.8,228.5
		s135.1,228.5,301.8,228.5c79.4,0,151.6-23.2,205.4-61.2c84.6,110.2,250.2,185.1,440.7,185.1c190,0,355.3-74.5,440.1-184.4
		c35.4,23.6,79.8,37.7,128.1,37.7c115.6,0,209.2-80.7,209.2-180.3S1769,566.3,1653.4,566.3z"/>
</g>
</svg>
