<?xml version="1.0" encoding="utf-8"?>
<!-- Generator: Adobe Illustrator 19.2.0, SVG Export Plug-In . SVG Version: 6.00 Build 0)  -->
<svg version="1.1" xmlns="http://www.w3.org/2000/svg" xmlns:xlink="http://www.w3.org/1999/xlink" x="0px" y="0px"
	 viewBox="0 0 2000 2000" style="enable-background:new 0 0 2000 2000;" xml:space="preserve">
<style type="text/css">
	.st0{fill:none;}
	.st1{fill:#00849F;}
	.st2{font-family:'LucidaConsole';}
	.st3{font-size:600px;}
	.st4{fill:#818182;}
</style>
<g id="Layer_1">
</g>
<g id="Layer_3">
	<rect x="564.8" y="445.7" class="st0" width="810.1" height="931.8"/>
</g>
<g id="Layer_4">
	<rect x="879.8" y="1224.2" class="st0" width="381" height="501.9"/>
	<text transform="matrix(1 0 0 1 879.8068 1686.7767)" class="st1 st2 st3">A</text>
	<rect x="1344.9" y="998.3" class="st0" width="381" height="501.9"/>
	<text transform="matrix(1 0 0 1 1344.8538 1460.9249)" class="st1 st2 st3">$</text>
	<rect x="374.3" y="1018.2" class="st0" width="381" height="501.9"/>
	<text transform="matrix(1 0 0 1 374.2567 1480.8411)" class="st1 st2 st3">1</text>
</g>
<g id="Layer_2">
	<path class="st4" d="M1653.4,566.3c-9.8,0-19.4,0.6-28.8,1.7c37.6-32.3,60.9-77,60.9-126.4c0-98.7-93-178.7-207.6-178.7
		c-31.9,0-62.1,6.2-89.1,17.3c-25.4-120.4-174-212.8-353.5-212.8c-161.2,0-297.5,74.6-342,177c-16.2-4.2-33.2-6.4-50.7-6.4
		c-112.4,0-203.6,91.2-203.6,203.6c0,17.6,2.2,34.7,6.4,51c-2.1,0-4.3-0.1-6.4-0.1c-166.7,0-301.8,102.3-301.8,228.5
		s135.1,228.5,301.8,228.5c79.4,0,151.6-23.2,205.4-61.2c84.6,110.2,250.2,185.1,440.7,185.1c190,0,355.3-74.5,440.1-184.4
		c35.4,23.6,79.8,37.7,128.1,37.7c115.6,0,209.2-80.7,209.2-180.3S1769,566.3,1653.4,566.3z"/>
</g>
</svg>
